<svg width="1512" height="720" xmlns="http://www.w3.org/2000/svg" xmlns:xlink="http://www.w3.org/1999/xlink" overflow="hidden"><defs><clipPath id="clip0"><rect x="0" y="0" width="1512" height="720"/></clipPath></defs><g clip-path="url(#clip0)"><rect x="0" y="0" width="1512" height="719.921" fill="#000000" fill-opacity="0"/><path d="M0-95.9894 1353.35-95.9894 1353.35 24.9972 0 24.9972Z" fill="#FFFF00" fill-rule="evenodd" transform="matrix(1.00011 0 0 1 34.6473 192.763)"/><path d="M0-95.9894 875.597-95.9894 875.597 24.9972 2.60388e-05 24.9972Z" fill="#FFFF00" fill-rule="evenodd" transform="matrix(1.00011 0 0 1 34.6473 346.746)"/><text font-family="Franklin Gothic Heavy,Franklin Gothic Heavy_MSFontService,sans-serif" font-style="italic" font-weight="900" font-size="107" transform="matrix(1 0 0 0.99989 34.6473 193)">Quantum Thermodynamics</text><text font-family="Franklin Gothic Heavy,Franklin Gothic Heavy_MSFontService,sans-serif" font-style="italic" font-weight="900" font-size="107" transform="matrix(1 0 0 0.99989 34.6473 347)">Down Under 2023</text><text fill="#FFFFFF" font-family="Franklin Gothic Medium,Franklin Gothic Medium_MSFontService,sans-serif" font-weight="400" font-size="80" transform="matrix(1 0 0 0.99989 34.6473 518)">30</text><text fill="#FFFFFF" font-family="Franklin Gothic Medium,Franklin Gothic Medium_MSFontService,sans-serif" font-weight="400" font-size="53" transform="matrix(1 0 0 0.99989 128.324 494)">th</text><text fill="#FFFFFF" font-family="Franklin Gothic Medium,Franklin Gothic Medium_MSFontService,sans-serif" font-weight="400" font-size="80" transform="matrix(1 0 0 0.99989 194.332 518)">October</text><text fill="#FFFFFF" font-family="Franklin Gothic Medium,Franklin Gothic Medium_MSFontService,sans-serif" font-weight="400" font-size="80" transform="matrix(1 0 0 0.99989 461.581 518)">–</text><text fill="#FFFFFF" font-family="Franklin Gothic Medium,Franklin Gothic Medium_MSFontService,sans-serif" font-weight="400" font-size="80" transform="matrix(1 0 0 0.99989 508.42 518)">2</text><text fill="#FFFFFF" font-family="Franklin Gothic Medium,Franklin Gothic Medium_MSFontService,sans-serif" font-weight="400" font-size="53" transform="matrix(1 0 0 0.99989 555.258 494)">nd</text><text fill="#FFFFFF" font-family="Franklin Gothic Medium,Franklin Gothic Medium_MSFontService,sans-serif" font-weight="400" font-size="80" transform="matrix(1 0 0 0.99989 632.767 518)">November 2023</text><text fill="#FFFFFF" font-family="Franklin Gothic Medium,Franklin Gothic Medium_MSFontService,sans-serif" font-weight="400" font-size="80" transform="matrix(1 0 0 0.99989 34.6473 662)">Brisbane, Queensland, Australia</text></g></svg>