<?xml version="1.0" encoding="utf-8"?>
<!-- Generator: Adobe Illustrator 25.4.1, SVG Export Plug-In . SVG Version: 6.00 Build 0)  -->
<svg version="1.1" id="Layer_1" xmlns="http://www.w3.org/2000/svg" xmlns:xlink="http://www.w3.org/1999/xlink" x="0px" y="0px"
	 viewBox="0 0 595.28 841.89" style="enable-background:new 0 0 595.28 841.89;" xml:space="preserve">
<style type="text/css">
	.st0{fill:#51247A;}
</style>
<g>
	<path class="st0" d="M377.92,418.57h-3.11v0.62h0.16c0.46,0,0.71,0.08,0.85,0.28l0.17,0.18c0.19,0.2,0.35,0.38,0.59,0.67v8.52
		c0,0.46-0.43,0.69-0.86,0.69h-0.23v0.62h3.41v-0.62h-0.2c-0.44,0-0.88-0.21-0.88-0.69v-7.04l7.14,8.3l0.05,0.05h0.47v-10.27
		c0-0.45,0.42-0.69,0.83-0.69h0.28v-0.62h-3.36v0.62h0.16c0.43,0,0.88,0.26,0.88,0.69v6.03l-6.29-7.29L377.92,418.57z
		 M338.57,443.84l0.79-1.8l0.78,1.8H338.57z M336.49,446.18h-0.23v0.38h1.92v-0.38h-0.19c-0.1,0-0.2-0.05-0.25-0.12
		c-0.04-0.05-0.04-0.11-0.02-0.18l0.58-1.36h2.14l0.59,1.36c0.04,0.09,0.01,0.16-0.02,0.2c-0.04,0.06-0.12,0.11-0.19,0.11h-0.28
		v0.38h2.45v-0.38h-0.17c-0.19,0-0.36-0.16-0.5-0.49l-2.49-5.74c-0.01-0.01-0.06-0.13-0.18-0.15c-0.05-0.01-0.13,0-0.22,0.1
		l-2.39,5.76C336.94,445.9,336.75,446.18,336.49,446.18 M331.23,439.93h-2.53v0.39h0.17c0.22,0,0.47,0.06,0.47,0.57v4.72
		c0,0.4-0.14,0.57-0.47,0.57h-0.17v0.39h2.53v-0.39h-0.14c-0.34,0-0.49-0.17-0.49-0.57v-4.72c0-0.51,0.28-0.57,0.49-0.57h0.14
		V439.93z M319.63,430.16h8.62l1.07-3.34h-0.66l-0.04,0.11c-0.47,1.48-1.21,2.11-2.5,2.11h-2.84c-0.2,0-0.41-0.15-0.41-0.43v-4h3.08
		c0.47,0,0.72,0.47,0.72,0.93v0.2h0.6v-3.43h-0.6v0.23c0,0.44-0.22,0.91-0.72,0.91h-3.08v-3.77h3.34c0.82,0,1.36,0.64,1.42,1.67
		l0.01,0.15h0.58l-0.21-2.92h-8.39v0.62h0.21c0.59,0,0.88,0.34,0.88,1.05v8.3c0,0.7-0.28,1.02-0.88,1.02h-0.21v0.59L319.63,430.16
		L319.63,430.16z M320.75,439.93h-2.53v0.39h0.16c0.12,0,0.47,0,0.47,0.6v4.69c0,0.52-0.27,0.58-0.47,0.58h-0.16v0.39h4.85
		l0.59-1.96h-0.41l-0.02,0.07c-0.26,0.84-0.69,1.22-1.41,1.22h-1.5c-0.11,0-0.23-0.15-0.23-0.3v-4.69c0-0.42,0.15-0.6,0.5-0.6h0.15
		v-0.39L320.75,439.93L320.75,439.93z M308.86,430.16h8.67l1.02-3.34h-0.64l-0.04,0.11c-0.46,1.46-1.23,2.11-2.49,2.11h-2.82
		c-0.23,0-0.46-0.15-0.46-0.43v-4h3.13c0.42,0,0.67,0.47,0.67,0.93v0.2h0.6v-3.43h-0.6v0.23c0,0.44-0.23,0.91-0.67,0.91h-3.13v-3.77
		h3.34c0.85,0,1.41,0.64,1.45,1.67l0.01,0.15h0.58l-0.21-2.92h-8.41v0.62h0.23c0.61,0,0.88,0.32,0.88,1.05v8.29
		c0,0.71-0.27,1.03-0.88,1.03h-0.23V430.16z M308.78,443.84l0.79-1.8l0.78,1.8H308.78z M306.69,446.18h-0.23v0.38h1.92v-0.38h-0.19
		c-0.1,0-0.2-0.05-0.25-0.12c-0.04-0.05-0.04-0.11-0.02-0.18l0.58-1.36h2.14l0.59,1.36c0.04,0.09,0.01,0.16-0.02,0.2
		c-0.04,0.06-0.12,0.11-0.19,0.11h-0.28v0.38h2.45v-0.38h-0.17c-0.19,0-0.36-0.16-0.5-0.49l-2.49-5.74
		c-0.01-0.01-0.06-0.13-0.18-0.15c-0.05-0.01-0.13,0-0.22,0.1l-2.39,5.76C307.14,445.9,306.96,446.18,306.69,446.18 M297.31,440.63
		c0.23-0.09,0.42-0.07,0.43-0.07c0.73,0,1.3,0.52,1.3,1.19c0,0.68-0.58,1.24-1.3,1.24h-0.43V440.63z M297.21,439.93h-1.79v0.39h0.17
		c0.32,0,0.47,0.19,0.47,0.57v4.72c0,0.5-0.25,0.57-0.47,0.57h-0.17v0.39h2.52v-0.39h-0.15c-0.34,0-0.49-0.17-0.49-0.57v-2.01h0.26
		l2.25,2.96h1.61v-0.39h-0.14c-0.17,0-0.31-0.17-0.46-0.34l-1.86-2.42c0.84-0.3,1.39-0.96,1.39-1.67l0,0
		c-0.01-0.54-0.16-0.94-0.48-1.24C299.39,440.05,298.51,439.86,297.21,439.93 M284.72,440.07l-0.06,1.59h0.36l0.01-0.1
		c0.04-0.63,0.27-0.94,0.7-0.94h1.19v5.02c0,0.37-0.15,0.53-0.51,0.53h-0.13v0.39h2.5v-0.39h-0.13c-0.35,0-0.49-0.14-0.49-0.53
		v-5.02h1.17c0.3,0,0.64,0.11,0.69,0.94l0.01,0.1h0.37l-0.07-1.59c0-0.07-0.07-0.15-0.15-0.15h-5.3
		C284.8,439.93,284.72,440,284.72,440.07 M269.11,424.61h3.13c0.61,0,0.64,0.77,0.64,0.93v0.2h0.62v-3.43h-0.62v0.23
		c0,0.15-0.03,0.91-0.64,0.91h-3.13v-3.77H273c0.79,0,1.37,0.67,1.43,1.67l0.01,0.15h0.58l-0.21-2.92h-8.93v0.62h0.23
		c0.61,0,0.88,0.33,0.88,1.07v8.27c0,0.71-0.27,1.03-0.88,1.03h-0.23v0.6h4.38v-0.6h-0.27c-0.6,0-0.86-0.3-0.86-1v-3.96
		L269.11,424.61L269.11,424.61z M266.51,439.93h-2.46v0.28l0.01,0.11h0.11c0.27,0,0.46,0.27,0.46,0.51v3.46
		c0,1.38,1.09,2.34,2.65,2.34c1.53,0,2.56-0.89,2.56-2.22v-3.76c0-0.15,0.05-0.34,0.31-0.34h0.31v-0.39h-1.96v0.39h0.28
		c0.21,0,0.34,0.13,0.34,0.34v3.76c0,1-0.88,1.52-1.75,1.52c-0.85,0-1.44-0.66-1.44-1.6v-3.5c0-0.26,0.22-0.51,0.45-0.51h0.14v-0.39
		L266.51,439.93L266.51,439.93z M254.6,443.84l0.79-1.8l0.78,1.8H254.6z M252.52,446.18h-0.23v0.38h1.92v-0.38h-0.19
		c-0.1,0-0.2-0.05-0.25-0.12c-0.04-0.05-0.04-0.11-0.02-0.18l0.58-1.36h2.14l0.59,1.36c0.03,0.09,0.01,0.16-0.02,0.2
		c-0.04,0.06-0.12,0.11-0.19,0.11h-0.28v0.38h2.45v-0.38h-0.17c-0.19,0-0.36-0.16-0.5-0.49l-2.49-5.74
		c-0.01-0.01-0.06-0.13-0.18-0.15c-0.05-0.01-0.13,0-0.22,0.1l-2.39,5.76C252.97,445.9,252.78,446.18,252.52,446.18 M206.39,418.84
		h1.05c-0.08-0.32-0.29-0.56-0.53-0.56C206.68,418.28,206.47,418.52,206.39,418.84 M207.44,419.4h-1.05
		c0.08,0.32,0.29,0.56,0.52,0.56C207.15,419.96,207.36,419.72,207.44,419.4 M206.39,414.07h1.05c-0.08-0.32-0.29-0.56-0.53-0.56
		C206.68,413.51,206.47,413.75,206.39,414.07 M207.44,414.63h-1.05c0.08,0.32,0.29,0.56,0.52,0.56
		C207.15,415.19,207.36,414.95,207.44,414.63 M221.3,422.14c-1.04,0-1.04,0-1.71,0.28c-0.37,0.15-0.87,0.36-1.42,0.36
		c-0.54,0-1.05-0.21-1.42-0.37c-0.66-0.28-0.66-0.28-1.7-0.28h-5.15v-2.18h-2.08c-0.21,0.34-0.53,0.56-0.9,0.56
		c-0.54,0-0.99-0.48-1.1-1.12h-0.3c-0.15,0-0.28-0.12-0.28-0.28c0-0.15,0.12-0.28,0.28-0.28h0.3c0.1-0.64,0.56-1.12,1.1-1.12
		c0.37,0,0.69,0.22,0.9,0.56h2.08v-3.09h-2.08c-0.21,0.34-0.53,0.56-0.9,0.56c-0.54,0-0.99-0.48-1.1-1.12h-0.3
		c-0.15,0-0.28-0.13-0.28-0.28s0.12-0.28,0.28-0.28h0.3c0.1-0.64,0.56-1.12,1.1-1.12c0.37,0,0.69,0.22,0.9,0.56h2.08v-1.59
		l1.12-0.64V421h4.03c1.26,0,1.34,0.03,2.14,0.36c0.23,0.1,0.58,0.28,0.99,0.28s0.76-0.18,0.99-0.28c0.8-0.33,0.88-0.36,2.14-0.36
		h4.03v-9.6l1.12,0.5v1.59h2.7c0.46,0,0.84,0.38,0.84,0.84s-0.38,0.84-0.84,0.84h-2.7v3.09h2.7c0.46,0,0.84,0.38,0.84,0.84
		s-0.38,0.84-0.84,0.84h-2.7v2.18h-5.16V422.14z M224.21,420.02h-2.91c-1.38,0-1.61,0.05-2.57,0.45v-8.43
		c0-0.83,0.85-1.33,1.99-1.33c1.67,0,2.57,0.54,3.49,0.37V420.02z M217.61,420.44c-0.96-0.4-1.18-0.45-2.57-0.45h-2.91v-8.94
		c0.93,0.18,1.82-0.37,3.49-0.37c1.13,0,1.99,0.5,1.99,1.33V420.44z M225.33,423.89c5.58,0.88,8.02,3.02,9.58,6.3v-26.91
		c-1.56,3.28-3.99,5.41-9.58,6.3c0.88-5.58,3.02-8.02,6.3-9.58h-26.91c3.27,1.56,5.4,4.01,6.29,9.57c-5.58-0.89-8.01-3.01-9.57-6.29
		v26.91c1.56-3.28,3.99-5.41,9.57-6.29c-0.89,5.56-3.02,8.01-6.29,9.57h26.91C228.34,431.91,226.21,429.48,225.33,423.89
		 M239.63,421.91c0,10.28-8.97,20.77-21.44,24.66c-12.51-3.88-21.48-14.38-21.48-24.66v-26.64h42.92V421.91z M240.75,421.91v-27.75
		h-45.16v27.75c0,10.9,9.36,21.71,22.26,25.72l0.33,0.1l0.33-0.1C231.4,443.62,240.75,432.8,240.75,421.91 M262.16,397.99h0.67
		l-0.15-3.56c0-0.12-0.12-0.28-0.25-0.28h-11.51c-0.13,0-0.25,0.16-0.25,0.28l-0.15,3.56h0.67l0.01-0.15
		c0.05-1.02,0.37-2.24,1.66-2.24h2.48v11.19c0,0.63-0.51,1.19-1.09,1.19h-0.8v0.72h6.46v-0.72h-0.8c-0.58,0-1.1-0.56-1.1-1.19V395.6
		h2.48c1.29,0,1.62,1.22,1.66,2.24L262.16,397.99z M261.51,422.78c0,3.79-1.64,6.33-4.08,6.33c-0.02,0-0.03,0-0.05,0
		c-0.84,0-1.62-0.33-2.26-0.96c-1.11-1.09-1.75-3.01-1.76-5.27c0-1.41,0.28-6.03,4.06-6.23
		C258.92,416.74,261.43,417.64,261.51,422.78 M264.35,422.89c0-4.31-2.84-7.35-6.91-7.41c-0.14,0-2.63-0.1-4.61,1.7
		c-1.42,1.29-2.2,3.21-2.32,5.72c0,4.28,2.91,7.39,6.92,7.39C261.45,430.28,264.35,427.17,264.35,422.89 M271.03,408.7h4.4v-0.62
		h-0.27c-0.6,0-0.86-0.31-0.86-1.02v-8.3c0-0.71,0.27-1.02,0.86-1.02h0.27v-0.62h-4.4v0.62h0.23c0.62,0,0.9,0.32,0.9,1.02v3.46
		h-4.51v-3.46c0-0.69,0.28-1.02,0.86-1.02h0.23v-0.62h-4.36v0.62h0.23c0.62,0,0.86,0.29,0.86,1.02v8.3c0,0.75-0.23,1.02-0.86,1.02
		h-0.23v0.62h4.36v-0.62h-0.23c-0.59,0-0.86-0.32-0.86-1.02v-3.72h4.51v3.72c0,0.72-0.27,1.02-0.9,1.02h-0.23V408.7z M278.43,440.17
		c-0.95-0.46-1.73-0.4-2.38,0.18c-0.4,0.38-0.61,0.95-0.56,1.5c0.06,0.54,0.37,1.02,0.88,1.33c0.16,0.1,0.33,0.2,0.51,0.31
		c0.57,0.34,1.17,0.69,1.41,1.04c0.32,0.44,0.25,0.88-0.21,1.29c-0.32,0.27-0.74,0.31-1.17,0.12c-0.5-0.23-1-0.82-1-1.62v-0.1h-0.4
		v2.38h0.38l0.02-0.08c0.03-0.12,0.08-0.2,0.17-0.24c0.07-0.03,0.15-0.02,0.23,0.02c0.39,0.2,0.87,0.35,1.36,0.35
		c0.42,0,0.83-0.11,1.2-0.39c0.73-0.55,0.97-1.52,0.55-2.26c-0.37-0.71-1.32-1.24-2.08-1.66l-0.13-0.07
		c-0.43-0.24-0.68-0.58-0.68-0.93c0-0.28,0.16-0.53,0.44-0.7c0.3-0.19,0.69-0.17,1.06,0.03c0.51,0.29,0.84,0.86,0.84,1.46v0.11h0.4
		v-2.31h-0.38l-0.02,0.08c-0.02,0.1-0.06,0.17-0.12,0.2C278.69,440.25,278.58,440.24,278.43,440.17 M285.83,408.7l1.04-3.34h-0.66
		l-0.03,0.11c-0.43,1.44-1.2,2.08-2.5,2.08h-2.84c-0.23,0-0.41-0.18-0.41-0.41v-4h3.1c0.45,0,0.65,0.47,0.65,0.91v0.23h0.65v-3.44
		h-0.65v0.23c0,0.38-0.2,0.91-0.65,0.91h-3.1v-3.8h3.34c0.82,0,1.36,0.64,1.42,1.67l0.01,0.15h0.6l-0.21-2.89h-8.44v0.62h0.23
		c0.6,0,0.88,0.33,0.88,1.02v8.3c0,0.71-0.27,1.02-0.88,1.02h-0.23v0.62h8.68L285.83,408.7L285.83,408.7z M292.02,422.89
		c0,3.1-1.25,6.22-4.05,6.22c-2.48,0-4.07-2.44-4.07-6.22c0.02-2.43,0.59-4.19,1.7-5.24c0.99-0.94,2.11-0.98,2.28-0.98
		c0.01,0,0.02,0,0.02,0h0.01C289.96,416.66,292.02,418.59,292.02,422.89 M294.91,422.98c-0.09-5.93-4.62-7.51-7-7.51l0,0
		c-4,0.03-6.91,3.15-6.91,7.41c0,3.73,2.21,6.65,5.52,7.31c2.12,2.17,4.91,3.27,8.28,3.27h0.16v-0.68l-0.15-0.01
		c-2.14-0.13-3.75-1.55-4.4-2.87C293.19,428.92,294.91,426.28,294.91,422.98 M306.62,394.9h0.63v-0.74h-4.4v0.74h0.7
		c0.51,0,0.79,0.3,0.79,0.84V404c0,2.36-2.03,3.44-3.91,3.44c-1.95,0-3.32-1.48-3.32-3.6v-7.78c0-0.62,0.52-1.17,1.12-1.17h0.35
		v-0.74h-5.56v0.74h0.32c0.67,0,1.12,0.6,1.12,1.17v7.71c0,3.02,2.37,5.12,5.76,5.12c3.29,0,5.59-2.01,5.59-4.89v-8.27
		C305.8,395.16,306.06,394.9,306.62,394.9 M306.96,419.19h0.51v-0.62h-3.39v0.62h0.46c0.39,0,0.62,0.24,0.62,0.62v6.59
		c0,1.78-1.56,2.7-3.11,2.7c-1.51,0-2.56-1.17-2.56-2.85v-6.14c0-0.48,0.39-0.93,0.81-0.93h0.23v-0.62h-4.26v0.46l0.02,0.16h0.16
		c0.49,0,0.84,0.49,0.84,0.93v6.08c0,2.4,1.9,4.08,4.62,4.08c2.67,0,4.46-1.55,4.46-3.87v-6.59
		C306.39,419.41,306.59,419.19,306.96,419.19 M319.62,397.73h0.23v-0.62h-3.43v0.62h0.25c0.4,0,0.84,0.22,0.84,0.69v6.01l-6.32-7.32
		h-3.11v0.62h0.16c0.44,0,0.7,0.04,0.9,0.28c0.15,0.16,0.26,0.3,0.4,0.46c0.09,0.11,0.2,0.23,0.32,0.37v8.55
		c0,0.46-0.43,0.67-0.84,0.67h-0.27v0.64h3.46v-0.64h-0.23c-0.44,0-0.88-0.23-0.88-0.67v-7.05l7.17,8.31l0.05,0.05h0.47v-10.27
		C318.76,397.97,319.19,397.73,319.62,397.73 M321.23,408.7h4.33v-0.62h-0.2c-0.61,0-0.88-0.32-0.88-1.02v-8.3
		c0-0.7,0.28-1.02,0.88-1.02h0.2v-0.62h-4.33v0.62h0.2c0.64,0,0.93,0.32,0.93,1.02v8.3c0,0.72-0.28,1.02-0.93,1.02h-0.2V408.7z
		 M337.78,397.73h0.16v-0.62h-2.92v0.62h0.32c0.13,0,0.26,0.07,0.34,0.18c0.05,0.07,0.11,0.2,0.05,0.36l-2.65,6.6l-2.9-6.6
		c-0.06-0.16-0.01-0.28,0.04-0.36c0.09-0.12,0.22-0.19,0.32-0.19h0.53v-0.62h-4.14v0.62h0.16c0.35,0,0.62,0.26,0.9,0.85l4.3,9.95
		l0.02,0.04c0.08,0.1,0.21,0.17,0.34,0.17c0.01,0,0.02,0,0.03,0c0.12-0.01,0.23-0.07,0.29-0.18l3.91-9.91
		C337.2,397.98,337.44,397.73,337.78,397.73 M339.34,419.89v6.03l-6.32-7.29l-0.05-0.05h-3.11v0.62h0.16c0.48,0,0.73,0.08,0.88,0.28
		l0.17,0.18c0.19,0.2,0.36,0.38,0.59,0.67v8.52c0,0.48-0.45,0.69-0.86,0.69h-0.25v0.62h3.43v-0.62h-0.23
		c-0.43,0-0.86-0.21-0.86-0.69v-7.04l7.14,8.3l0.05,0.05h0.46v-10.27c0-0.45,0.43-0.69,0.84-0.69h0.25v-0.62h-3.41v0.62h0.23
		C338.89,419.19,339.34,419.45,339.34,419.89 M347.96,408.7l1.07-3.34h-0.67l-0.03,0.11c-0.45,1.44-1.22,2.09-2.49,2.09H343
		c-0.23,0-0.41-0.18-0.41-0.41v-4h3.08c0.53,0,0.67,0.57,0.67,0.91v0.23h0.64v-3.44h-0.64v0.23c0,0.35-0.18,0.91-0.67,0.91h-3.08
		v-3.8h3.34c0.8,0,1.36,0.66,1.43,1.67l0.01,0.15h0.6l-0.24-2.89h-8.41v0.62h0.23c0.6,0,0.86,0.32,0.86,1.02v8.3
		c0,0.72-0.26,1.02-0.86,1.02h-0.23v0.62L347.96,408.7L347.96,408.7z M345.04,421.01c-0.01-0.5,0.28-0.95,0.79-1.25
		c0.54-0.33,1.23-0.31,1.89,0.06c0.9,0.51,1.49,1.53,1.49,2.6v0.16h0.65v-4h-0.62l-0.03,0.13c-0.04,0.19-0.11,0.32-0.21,0.37
		c-0.13,0.07-0.33,0.04-0.6-0.08c-1.66-0.8-3.02-0.7-4.15,0.31c-0.7,0.66-1.07,1.66-0.97,2.61c0.1,0.95,0.65,1.77,1.54,2.31
		c0.27,0.17,0.57,0.35,0.87,0.52c1.02,0.61,2.08,1.23,2.51,1.85c0.57,0.79,0.45,1.56-0.37,2.29c-0.56,0.48-1.32,0.56-2.08,0.21
		c-0.88-0.41-1.78-1.45-1.78-2.88v-0.16h-0.65v4.1h0.62l0.02-0.1c0.05-0.21,0.16-0.37,0.3-0.43c0.13-0.06,0.28-0.05,0.44,0.04
		c0.68,0.35,1.52,0.61,2.37,0.61c0.73,0,1.45-0.19,2.08-0.67c1.27-0.95,1.68-2.64,0.97-3.93c-0.64-1.24-2.3-2.16-3.63-2.89
		l-0.23-0.13C345.49,422.23,345.04,421.63,345.04,421.01 M354.38,402.48h-0.79v-4.19c0.41-0.17,0.77-0.13,0.79-0.13
		c1.29,0,2.3,0.93,2.3,2.11C356.68,401.49,355.65,402.48,354.38,402.48 M358.04,408.7h2.79v-0.62h-0.23c-0.31,0-0.57-0.3-0.83-0.61
		l-3.28-4.28c1.49-0.52,2.46-1.67,2.45-2.92c-0.01-0.94-0.28-1.64-0.82-2.15c-0.85-0.8-2.39-1.13-4.68-1.01h-3.11v0.62h0.28
		c0.58,0,0.86,0.34,0.86,1.03v8.3c0,0.71-0.26,1.02-0.86,1.02h-0.28v0.62h4.38v-0.62h-0.23c-0.61,0-0.88-0.32-0.88-1.02v-3.55h0.5
		L358.04,408.7z M360.78,430.16l1.02-3.39h-0.66l-0.04,0.11c-0.46,1.49-1.23,2.16-2.5,2.16h-2.62c-0.21,0-0.43-0.28-0.43-0.55v-8.23
		c0-0.74,0.28-1.07,0.91-1.07h0.23v-0.62h-4.38v0.62h0.25c0.58,0,0.86,0.35,0.86,1.07v8.23c0,0.94-0.49,1.05-0.86,1.05h-0.25v0.62
		L360.78,430.16L360.78,430.16z M366.18,425.43l1.42-3.26l1.41,3.26H366.18z M362.56,429.54h-0.37v0.62h3.31v-0.62h-0.3
		c-0.18,0-0.36-0.09-0.45-0.23c-0.07-0.1-0.08-0.21-0.04-0.33l1.02-2.41h3.79l1.05,2.41c0.06,0.17,0.02,0.29-0.04,0.37
		c-0.08,0.12-0.22,0.2-0.36,0.2h-0.46v0.62h4.24v-0.62h-0.28c-0.35,0-0.65-0.29-0.9-0.87l-4.37-10.08c-0.01-0.02-0.1-0.22-0.28-0.25
		c-0.09-0.01-0.22,0-0.36,0.17l-4.18,10.11C363.38,429.04,363.05,429.54,362.56,429.54 M369.17,404.17c-0.67-1.27-2.35-2.21-3.87-3
		c-0.74-0.42-1.17-1-1.18-1.61c-0.02-0.51,0.26-0.98,0.76-1.31c0.57-0.33,1.27-0.29,1.94,0.09c0.71,0.41,1.46,1.29,1.46,2.56v0.16
		h0.6v-3.95h-0.57l-0.02,0.13c-0.03,0.17-0.09,0.27-0.18,0.32c-0.13,0.07-0.36,0.04-0.67-0.08c-1.7-0.77-3-0.67-4.1,0.34
		c-0.71,0.66-1.1,1.66-1,2.61c0.09,0.94,0.63,1.75,1.52,2.3c0.26,0.16,0.54,0.33,0.82,0.5c0.99,0.59,2.12,1.27,2.56,1.87
		c0.6,0.81,0.47,1.56-0.38,2.29c-0.56,0.49-1.31,0.57-2.06,0.23c-0.88-0.4-1.77-1.45-1.77-2.9v-0.16h-0.65v4.14H363l0.03-0.11
		c0.06-0.22,0.19-0.38,0.35-0.45c0.12-0.05,0.26-0.04,0.4,0.04c0.75,0.4,1.54,0.6,2.29,0.6c0.8,0,1.55-0.23,2.13-0.68
		C369.46,407.18,369.88,405.45,369.17,404.17 M371.52,408.7h4.38v-0.62h-0.23c-0.61,0-0.88-0.32-0.88-1.02v-8.3
		c0-0.7,0.28-1.02,0.88-1.02h0.23v-0.62h-4.38v0.62h0.28c0.59,0,0.86,0.32,0.86,1.02v8.3c0,0.72-0.26,1.02-0.86,1.02h-0.28V408.7z
		 M387.1,400.1h0.6l-0.12-2.76c0-0.11-0.12-0.23-0.23-0.23h-9.31c-0.11,0-0.23,0.12-0.23,0.22l-0.1,2.76h0.57l0.01-0.15
		c0.07-1.12,0.48-1.67,1.26-1.67h2.11v8.85c0,0.67-0.28,0.95-0.93,0.95h-0.21v0.62h4.34v-0.62h-0.21c-0.63,0-0.88-0.27-0.88-0.95
		v-8.85h2.09c0.49,0,1.15,0.17,1.24,1.67V400.1z M392.74,419.51c1.62-0.04,2.87,0.41,3.71,1.34c1.29,1.41,1.19,3.45,1.19,3.49
		c0,3.04-1.78,4.78-4.88,4.78c-0.38,0-0.6-0.02-0.95-0.1v-9.39C392.16,419.43,392.71,419.51,392.74,419.51 M392.77,418.58h-4.44
		v0.62h0.25c0.37,0,0.86,0.11,0.86,1.07v8.22c0,0.73-0.27,1.05-0.86,1.05h-0.25v0.62h5.38c3.35,0,5.97-2.55,5.97-5.8
		c0.01-0.16,0.13-2.35-1.45-4.01C397.03,419.1,395.19,418.5,392.77,418.58 M399.68,397.76v-0.65h-3.08v0.65h0.44
		c0.08,0,0.16,0.06,0.21,0.15s0.08,0.24,0.01,0.36l-2.45,4.18l-2.69-4.1c-0.1-0.2-0.04-0.35,0.01-0.43
		c0.07-0.11,0.17-0.17,0.28-0.17h0.42v-0.65h-4.31v0.65h0.16c0.28,0,0.65,0.09,1.05,0.83l3.42,5.23v3.24c0,0.75-0.26,1.05-0.88,1.05
		h-0.23v0.62h4.43v-0.62h-0.23c-0.65,0-0.91-0.28-0.91-1v-3.36l3.05-5.2c0.32-0.5,0.73-0.78,1.14-0.78L399.68,397.76L399.68,397.76z
		"/>
</g>
</svg>
